# xmcd
#
# Track frame offsets:
#	150
#	11738
#	20891
#	32861
#	45750
#	59797
#	74947
#	87850
#	98911
#	111057
#	121679
#	134225
#	143403
#	156482
#	171883
#	181416
#	193747
#	203008
#	212860
#	222583
#	232721
#	244801
#	256554
#
# Disc length: 3616 seconds
#
# Revision: 2
# Processed by: cddbd v1.5.2PL0 Copyright (c) Steve Scherf et al.
# Submitted via: EasyCDDAExtractor 12.0.1.1
#
DISCID=560e1e17
DTITLE=Various Artist - Lynn Anderson
DYEAR=1989
DGENRE=Country
TTITLE0=Lynn Anderson - Auctioneer
TTITLE1=Lynn Anderson - Beggars Can't Be Choosers
TTITLE2=Lynn Anderson - Beleave me
TTITLE3=Lynn Anderson - Big girls don't cry
TTITLE4=Lynn Anderson - Cry
TTITLE5=Lynn Anderson - Desperado
TTITLE6=Lynn Anderson - Ding Ding A Ling The Christmas
TTITLE7=Lynn Anderson - Help Me Make It Through The Ni
TTITLE8=Lynn Anderson - How Can I Unlove You
TTITLE9=Lynn Anderson - It's Only Make Believe
TTITLE10=Lynn Anderson - Listen To A Country Song
TTITLE11=Lynn Anderson - Mother, May I (with Liz Anderson)
TTITLE12=Lynn Anderson - Track 14
TTITLE13=Lynn Anderson - Sea of Heartbreak
TTITLE14=Lynn Anderson - Snowbird
TTITLE15=Lynn anderson - Stand by your man
TTITLE16=Lynn Anderson - Stay There Till I Get There
TTITLE17=Lynn Anderson - That's A No No
TTITLE18=Lynn Anderson - Track 11
TTITLE19=Lynn Anderson - If I Kiss You (Will You Go Awa
TTITLE20=Lynn Anderson - You don't have to say you love
TTITLE21=Lynn Anderson - You're My Man
TTITLE22=Lynn Anderson - Texas When I Die (with Ed Bruce)
EXTD=
EXTT0=
EXTT1=
EXTT2=
EXTT3=
EXTT4=
EXTT5=
EXTT6=
EXTT7=
EXTT8=
EXTT9=
EXTT10=
EXTT11=
EXTT12=
EXTT13=
EXTT14=
EXTT15=
EXTT16=
EXTT17=
EXTT18=
EXTT19=
EXTT20=
EXTT21=
EXTT22=
PLAYORDER=
